<svg version="1.1" id="Layer_1" xmlns="http://www.w3.org/2000/svg" x="0" y="0" viewBox="0 0 971 194" xml:space="preserve"><style>.st0{fill:#fff}</style><path class="st0" d="M432.9 68.9s-.6-3.1 6.2-5.6c6.5-2.4 20.8-4.2 20.2-19.3-.1-2.8.8-5.6 2.7-7.7.1-.1 1.7-2.2 1.8-2.3 3.2-3.4 1.7-5.9-.8-11.2-1.9-4.1-5.6-10.7-7.3-13.6-.5-.9-1.3-1.8-2.2-2.4-.4-.3-.8-.4-1.3-.4h-3c-.5 0-1 .2-1.4.5-.9.7-1.7 1.7-2.2 2.7L440.7 20c-.7 1.5-1.4 2.9-2.1 4.3-1.1 2.1-2.8 7.1 2.1 11.3 6.4 5.6 4.4 10.1 4.4 10.1s-1.3 3.8-4.9 4.8c-.5.1-1 .2-1.4.2-3.1.2-24.5 2.1-25.9 19.8 0 0 .3 13 17.4 16.9 0 0 11.1 1 23-2.5s16.2-7 22.9-2.5c6.7 4.5.7 14.2-6.8 13.6-7.5-.6-32.4-6.8-46-6.4-13.6.4-28.7 6.4-32.5 26.5-3.8 20 17.7 32.4 38.2 27.8 20.5-4.6 28.9-10.9 35.5-7.3 6.6 3.6 1.4 10.4-9.4 9.7-10.8-.6-33.2-1.6-39.4 11.7-6.2 13.3 3.4 32.4 23.1 31.4 12.2-.6 18.4-5.5 21.4-9.2.5-.6.9-1.4 1-2.2.1-.5 0-1-.1-1.6-.2-.7-1-1.1-1.7-.9-.7.2-1.8.6-2.8 1.6-1.9 1.9-10.6 9.7-21.4 3.6-9.7-5.5-9.4-11.8-9.2-13.1 0-.2 0-.3.1-.5.2-1.4 1.9-8.8 18.5-7.3l12.1 1.4s20.6 2.3 27.1-15.5c.5-1.4.8-2.9.7-4.4-.1-4.7-1.6-14.6-12.9-20-3.9-1.8-8.1-2.7-12.4-2.7-4.9.1-12.6.7-19.7 3.9-11.4 5.1-26.7 8.4-26.7-5.1s25.5-8.4 34.2-6.1c0 0 30.6 7.3 44.2-3.7 13.6-10.9 11.6-22.9 5.2-32.5-6.4-9.6-24.7-17.5-37-8.9-12.4 8.6-23 6.3-23 6.3s-3.5-.3-3.6-3.6zM19.8 4.3L3 187.5v2.2h31.3l2.9-45.6h14.3l2.9 45.6h34.9v-2.2L72.5 4.3H19.8zM39 116l4.2-65.9h2.2l4.2 65.9H39zM108.8 4.3L92 187.5v2.2h31.3l2.9-45.6h14.3l2.9 45.6h34.9v-2.2L161.5 4.3h-52.7zM128 116l4.2-65.9h2.2l4.2 65.9H128zm52.8-1.1V148c0 25.7 12.5 43.8 39.8 43.8 27 0 39.5-18.1 39.5-43.8V4.3h-35.5v157.1c0 4.9-1.8 7.6-5.6 7.6-3.6 0-5.6-2.9-5.6-7.6v-24.8c0-7.8 0-15-1.6-21.7h-31zM279.2 4.3l-16.8 183.2v2.2h31.3l2.9-45.6h14.3l2.9 45.6h34.9v-2.2L331.9 4.3h-52.7zM298.4 116l4.2-65.9h2.2L309 116h-10.6zM539.4 4.3v185.4h31.1l-1.3-92.3h2.2l13.4 92.3h19.7l13.4-92.3h2.2l-1.3 92.3h31.1V4.3h-40.4L595.7 110h-2.2L579.8 4.3h-40.4zm155.4 0h-36.4v138.1c0 30.6 15.2 49.6 42 49.6 26.6 0 41.8-19 41.8-49.6V4.3h-35.3v156.2c0 4.5-2 7.6-6 7.6s-6-3.1-6-7.6V4.3zm54.4 125.1v19.7c0 27.7 14.5 42.9 39.6 42.9 25.2 0 40.2-15.4 40.2-40 0-23.9-12.5-44.9-23.5-63.4L798.8 78c-10.1-17-16.1-30.4-16.1-41.8 0-7.4 2.9-10.5 6.9-10.5 3.8 0 5.8 3.1 5.8 8v7.8c0 6.9.2 14.1 1.8 20.8h31.1V44.5c0-27.3-14.5-42.4-39.5-42.4s-40.2 15.4-40.2 39.8c0 23.5 12.3 40.4 23.2 58.8l6.5 10.5c10.1 17.2 16.5 34.2 16.5 46.7 0 7.4-2.9 10.5-6.9 10.5-3.8 0-5.8-3.1-5.8-8.3v-9.8c0-6.9-.2-14.1-1.8-20.8h-31.1zM835.5 4.3v185.4h36.2V4.3h-36.2zm43.8 70.8v43.8c0 50.5 18.1 73.1 46.7 73.1 27.9 0 42-21.9 42-57.2v-15.4h-34c-1.6 6.7-1.8 14.5-1.8 22.3v17.9c0 5.1-2 8.5-6 8.5s-6.3-3.4-6.3-8.7V34.7c0-5.4 2.2-8.7 6.3-8.7 4 0 6 3.4 6 8.5v16.8c0 7.8.2 15.6 1.8 22.3h34V59.2C968 23.9 953.9 2 926 2c-28.6 0-46.7 22.6-46.7 73.1z"/></svg>