<?xml version="1.0" encoding="utf-8"?>
<!-- Generator: Adobe Illustrator 25.2.1, SVG Export Plug-In . SVG Version: 6.00 Build 0)  -->
<svg version="1.1" id="Layer_1" xmlns="http://www.w3.org/2000/svg" xmlns:xlink="http://www.w3.org/1999/xlink" x="0px" y="0px"
	 viewBox="0 0 181.4 299.6" style="enable-background:new 0 0 181.4 299.6;" xml:space="preserve">
<path d="M69.7,102.6c0,0-1-5.1,10.1-9.2c10.6-4,33.8-6.8,32.9-31.5c-0.2-4.6,1.3-9.1,4.4-12.6c0.1-0.1,2.8-3.6,2.9-3.8
	c5.2-5.6,2.7-9.6-1.3-18.3c-3.1-6.6-9.2-17.5-11.9-22.2c-0.9-1.5-2.1-2.9-3.5-3.9c-0.6-0.4-1.4-0.7-2.1-0.7l-4.8,0
	c-0.9,0-1.7,0.3-2.4,0.8c-1.5,1.2-2.7,2.7-3.6,4.5l-7.9,17.1c-1.1,2.4-2.3,4.7-3.5,7c-1.7,3.4-4.6,11.5,3.4,18.5
	c10.4,9.1,7.1,16.5,7.1,16.5s-2,6.1-8,7.8c-0.8,0.2-1.6,0.3-2.4,0.4c-5.1,0.3-39.8,3.5-42.1,32.3c0,0,0.5,21.1,28.3,27.5
	c0,0,18.1,1.6,37.5-4.1c19.4-5.8,26.4-11.4,37.3-4c10.9,7.4,1.1,23.1-11.1,22.1c-12.2-1-52.8-11.1-74.9-10.5s-46.8,10.5-53,43.2
	s28.9,52.8,62.2,45.3c33.3-7.5,47-17.8,57.7-11.9c10.8,5.9,2.3,16.9-15.2,15.9c-17.6-1-54.1-2.6-64.1,19
	c-10.1,21.6,5.5,52.8,37.6,51.2c19.9-0.9,30-9,34.8-15c0.8-1,1.4-2.3,1.6-3.6c0.1-0.8,0.1-1.7-0.2-2.6c-0.3-1.1-1.6-1.8-2.7-1.5
	c-1.2,0.3-2.9,1.1-4.5,2.7c-3.2,3.1-17.2,15.9-34.9,5.9c-15.8-8.9-15.3-19.2-15-21.3c0-0.2,0.1-0.5,0.1-0.7
	c0.3-2.2,3.1-14.4,30.2-11.9l19.6,2.3c0,0,33.5,3.8,44-25.3c0.8-2.3,1.2-4.8,1.2-7.3c-0.1-7.6-2.7-23.8-21-32.5
	c-6.3-3-13.3-4.4-20.2-4.3c-7.9,0.1-20.5,1.2-32,6.4c-18.5,8.4-43.5,13.6-43.5-8.4s41.6-13.6,55.6-9.9c0,0,49.8,11.8,72-6
	c22.2-17.8,18.8-37.3,8.4-53c-10.4-15.7-40.2-28.5-60.3-14.5c-20.1,14.1-37.4,10.3-37.4,10.3S69.9,107.9,69.7,102.6z"/>
</svg>
