<?xml version="1.0" encoding="utf-8"?>
<!-- Generator: Adobe Illustrator 25.2.1, SVG Export Plug-In . SVG Version: 6.00 Build 0)  -->
<svg version="1.1" id="Layer_1" xmlns="http://www.w3.org/2000/svg" xmlns:xlink="http://www.w3.org/1999/xlink" x="0px" y="0px"
	 viewBox="0 0 976 780" style="enable-background:new 0 0 976 780;" xml:space="preserve">
<g>
	<path d="M676.7,258.7c-8.2-7.3-20.4-7.3-28.6,0c-8.2,7.3-8.2,18.3,0,25.6c65.3,58.6,65.3,152.1,0,210.7c-8.2,7.3-8.2,18.3,0,25.6
		c4.1,3.7,10.2,5.5,14.3,5.5c4.1,0,10.2-1.8,14.3-5.5C756.3,449.2,756.3,332,676.7,258.7z" class="lines" />
	<path d="M758.4,185.4c-8.2-7.3-20.4-7.3-28.6,0c-8.2,7.3-8.2,18.3,0,25.6C840,310,840,469.4,729.8,568.3c-8.2,7.3-8.2,18.3,0,25.6
		c4.1,3.7,10.2,5.5,14.3,5.5c4.1,0,10.2-1.8,14.3-5.5C884.9,482.2,884.9,299,758.4,185.4z"class="lines" />
	<path d="M842,112.2c-8.2-7.3-20.4-7.3-28.6,0c-8.2,7.3-8.2,18.3,0,25.6c75.5,67.8,116.3,157.5,116.3,252.8
		c0,95.3-40.8,185-116.3,252.8c-8.2,7.3-8.2,18.3,0,25.6c4.1,3.7,10.2,5.5,14.3,5.5c4.1,0,10.2-1.8,14.3-5.5
		c83.7-75.1,128.6-174,128.6-278.5C970.6,286.2,923.6,187.3,842,112.2z"class="lines" />
	<path d="M570.6,7.7c-6.1-3.7-14.3-3.7-20.4,0L178.9,190.9h-153c-6.1,0-10.2,1.8-14.3,5.5c-4.1,3.7-6.1,7.3-6.1,12.8v364.6
		c0,11,8.2,18.3,20.4,18.3h155.1l371.4,181.4c2,1.8,6.1,1.8,10.2,1.8c4.1,0,8.2,0,10.2-1.8c6.1-3.7,10.2-9.2,10.2-16.5V24.2
		C580.8,16.9,576.8,11.4,570.6,7.7z M44.2,225.8h118.3v329.8H44.2V225.8z M540,725.9L205.4,561V218.4L540,53.5V725.9z"/>
</g>
</svg>
