<svg version="1.1" id="Layer_1" xmlns="http://www.w3.org/2000/svg" x="0" y="0" viewBox="0 0 1024 1024" xml:space="preserve"><style>.st0{fill:#fff}</style><path class="st0" d="M964.2 594.4c16.8-1.9 27.8-13.2 29.5-30.5 2.2-22.3-13.6-39.8-38.3-42.3-11.1-1.1-21.3.9-29.8 6-10 5.9-15.6 15.1-16.8 27.1-1.2 12.2 2.5 22 11 29.7 5.3 4.7 10.2 7.1 18.2 8.9l1.2-11.7c-14-3.3-21.6-12.9-20.3-25.6 1.5-15.2 15.9-24.1 35.5-22.2 19.1 1.9 30.8 13.4 29.2 29-1.1 11.2-8.4 18.7-19.4 20.1v11.5zM978.4 641.7l3.2-10.8-78.4-23-3.2 10.8 33.5 9.8c9.5 2.8 13.6 9.9 10.8 19.3-1.1 3.8-3.2 6.5-5.8 7.7-2.4 1.2-5 1.1-9.9-.3l-36.2-10.6-3.2 10.8 38 11.1c6.5 1.9 10.8 2 14.9.3 5.2-2.2 9.2-7.1 11.3-14.1 2-6.8 1.5-12-1.7-18.9l26.7 7.9zM914.1 699.5c3.8 2.1 4.9 2.9 5.9 4.3 2.2 2.8 1.9 7.7-.6 12.9-3.4 7.2-8.8 10.2-14 7.7-3.3-1.6-3.7-3.4-1.8-10.4l3.3-12.9c3-11.9.2-19.7-8.4-23.8-9.4-4.5-19.2-.5-24.2 9.9-3.4 7.2-3.8 14.2-1 22.2-5.5-1.5-8.7-.3-11 4.5-1 2.1-1.8 4.3-2.4 7l7.8 3.8c.1-1.4.3-2 .7-2.9 1.1-2.3 2.3-2.5 6.5-.4l25.1 12c11.1 5.3 20.9.8 27.3-12.5 3.6-7.5 4.4-15 2.2-20.3-1.7-4.1-4.9-7.1-11-10.5l-4.4 9.4zm-26.5 16.6c-7.6-3.6-10.5-13.7-6.4-22.4 2.9-6 8.1-8.4 12.9-6 4.2 2 5.4 6 3.9 12.9l-2.5 11.6c-.6 3-.9 5-1 7.3l-6.9-3.4zM887.9 786.9l5.8-8.9 15.7 10.2 6.1-9.5-15.7-10.2 4.3-6.7-7.5-4.9-4.3 6.7-31.1-20.2c-8.2-5.3-14.2-4.4-18.8 2.7-1.5 2.3-2.3 3.9-4 8.6l7.7 5c.6-3.2 1.2-4.8 2.1-6.1 1.5-2.4 4-2.6 6.9-.8l31.1 20.2-5.8 8.9 7.5 5zM875.4 804.6l-46-37.2-7.1 8.8 24.2 19.6c8.2 6.6 10.1 17.1 4.4 24.2-1 1.2-1.9 2.1-3.7 3.6l7.9 6.4c2-.9 3.7-2.2 5.1-3.9 2.2-2.8 3.5-7.2 3-11.1-.1-2.2-.6-3.8-1.8-7.7l7.2 5.9 6.8-8.6zM820.7 867.1c12.4-11.5 12.3-28.5-.2-42.1-12.6-13.7-29.6-15.2-42.1-3.7-12.4 11.5-12.4 28.6-.1 42 13 14 29.7 15.6 42.4 3.8zm-6.4-6.9c-8.1 7.5-17.9 5.9-27.6-4.6-9.1-9.9-9.8-20.1-2-27.3 8-7.4 18-5.8 27.4 4.4 9.4 10.1 10.2 20.2 2.2 27.5zM758.7 915.7c14.2-9.2 17-26 6.9-41.6-10.1-15.6-26.7-19.9-40.8-10.7-14.2 9.2-17.1 26.1-7.2 41.3 10.3 16.1 26.6 20.4 41.1 11zm-5.2-7.9c-9.3 6-18.7 2.8-26.4-9.2-7.3-11.3-6.3-21.5 2.6-27.3 9.1-5.9 18.7-2.6 26.3 9 7.5 11.6 6.6 21.6-2.5 27.5zM710.8 943.5l-21-55.3-10.5 4 13 34.2c3 8 .4 14.9-6.7 17.6-6 2.3-10.5 0-12.9-6.3L658.4 900l-10.5 4 12.8 33.7c3.2 8.5.8 15.4-6.5 18.2-6.2 2.3-10.5 0-13.2-7.2l-14-36.8-10.5 4 14.3 37.6c2.4 6.4 5 10 8.7 12.2 4.1 2.6 10 2.8 15.8.5 7.8-3 11.4-7.3 13.2-15.6 5 5.5 10.5 6.6 17.8 3.8 6.9-2.6 9.9-6.3 11.8-14.2l2.7 7 10-3.7zM432.6 979.9c1.8 16.8 13.1 27.8 30.4 29.6 22.3 2.3 39.8-13.5 42.4-38.2 1.2-11.1-.9-21.3-5.9-29.8-5.9-10-15-15.6-27.1-16.9-12.2-1.3-22 2.4-29.7 10.9-4.7 5.3-7.1 10.2-8.9 18.2l11.7 1.2c3.3-13.9 13-21.6 25.6-20.2 15.2 1.6 24.1 15.9 22 35.5-2 19.1-13.5 30.7-29.1 29.1-11.2-1.2-18.7-8.5-20-19.5l-11.4.1zM384.5 992.9l10.7 3.4 24.8-77.8-10.7-3.4-10.6 33.3c-3 9.5-10.2 13.3-19.5 10.4-3.7-1.2-6.4-3.3-7.6-6-1.2-2.4-1-5.1.6-9.8l11.5-35.9-10.7-3.4-12 37.7c-2 6.4-2.3 10.7-.6 14.8 2 5.3 6.9 9.4 13.8 11.6 6.8 2.2 11.9 1.7 18.9-1.3l-8.6 26.4zM327.5 926.5c-2.2 3.7-3.1 4.8-4.6 5.8-2.9 2.1-7.8 1.6-12.9-1.1-7-3.7-9.8-9.2-7.1-14.3 1.7-3.3 3.5-3.5 10.4-1.4l12.8 3.8c11.8 3.4 19.7 1 24.2-7.5 4.9-9.2 1.2-19.2-9-24.5-7-3.7-14-4.4-22.2-1.8 1.8-5.4.7-8.6-4.1-11.2-2.1-1.1-4.2-2-6.9-2.7l-4.1 7.7c1.4.2 2 .4 2.9.8 2.3 1.2 2.4 2.4.2 6.5l-13 24.6c-5.7 10.8-1.6 20.9 11.4 27.8 7.4 3.9 14.8 5 20.2 3 4.1-1.6 7.3-4.6 11-10.6l-9.2-4.9zm-15.6-27.1c3.9-7.5 14.1-10 22.6-5.5 5.9 3.1 8 8.4 5.5 13.2-2.2 4.1-6.2 5.2-13 3.4l-11.4-3c-2.9-.7-5-1.1-7.2-1.3l3.5-6.8zM241.5 896.9l8.7 6.2-10.9 15.3 9.2 6.5 10.9-15.3 6.5 4.6 5.2-7.3-6.5-4.6 21.6-30.2c5.7-8 5-14-1.8-18.9-2.2-1.6-3.8-2.4-8.5-4.4l-5.3 7.5c3.2.8 4.7 1.4 6 2.3 2.3 1.6 2.5 4.2.5 6.9l-21.6 30.2-8.7-6.2-5.3 7.4zM224.1 883.3l39.5-44.1-8.4-7.5-20.8 23.2c-7 7.8-17.6 9.2-24.4 3.2-1.2-1.1-2-2-3.4-3.9l-6.8 7.6c.8 2 2 3.8 3.7 5.3 2.6 2.4 7.1 3.9 11 3.6 2.2 0 3.8-.4 7.8-1.4l-6.2 6.9 8 7.1zM164.7 826.2c10.9 12.9 27.9 13.6 42.1 1.7 14.3-12 16.5-28.9 5.6-41.9-10.9-12.9-28-13.7-41.9-2.1-14.6 12.4-16.9 29.1-5.8 42.3zm7.2-6c-7.1-8.4-5-18.2 5.8-27.3 10.3-8.7 20.5-8.9 27.4-.8 7 8.3 4.9 18.3-5.7 27.2-10.4 8.8-20.5 9.1-27.5.9zM119 762c8.6 14.6 25.3 18.1 41.2 8.7 16-9.5 21.1-25.8 12.5-40.3-8.6-14.6-25.4-18.2-41-9-16.5 9.7-21.5 25.8-12.7 40.6zm8.1-4.7c-5.6-9.5-2-18.8 10.3-26 11.6-6.8 21.7-5.4 27.1 3.8 5.5 9.4 1.9 18.8-10.1 25.8-11.8 7-21.8 5.6-27.3-3.6zM93.8 714.4l55.8-19.5-3.7-10.6-34.6 12.1c-8.1 2.8-14.9 0-17.4-7.1-2.1-6 .2-10.5 6.6-12.7l38-13.3-3.7-10.6-34 11.9c-8.6 3-15.5.3-18-6.9-2.2-6.2.2-10.5 7.5-13l37.1-13-3.7-10.6-37.9 13.3c-6.5 2.3-10.2 4.7-12.4 8.4-2.7 4.1-3 9.9-1 15.8 2.8 7.9 7 11.6 15.3 13.6-5.6 4.8-6.9 10.3-4.3 17.7 2.4 6.9 6 10.1 13.9 12.2l-7.1 2.5 3.6 9.8zM59.4 437.5c-16.8 2.1-27.7 13.5-29.2 30.8-2 22.3 14 39.6 38.8 41.9 11.1 1 21.3-1.2 29.7-6.3 9.9-6 15.4-15.2 16.5-27.3 1.1-12.2-2.7-22-11.4-29.6-5.4-4.7-10.3-7-18.3-8.6l-1 11.7c14 3.1 21.7 12.6 20.6 25.3-1.4 15.3-15.6 24.3-35.2 22.5-19.2-1.7-30.9-13.1-29.5-28.7 1-11.2 8.2-18.8 19.2-20.3l-.2-11.4zM44.6 390.3l-3.1 10.8 78.7 22.1 3.1-10.8-33.6-9.4c-9.6-2.7-13.7-9.7-11-19.1 1.1-3.8 3.1-6.5 5.8-7.8 2.4-1.2 5-1.1 9.9.2l36.3 10.2 3.1-10.8L95.7 365c-6.5-1.8-10.8-1.9-14.9-.1-5.2 2.2-9.2 7.2-11.1 14.2-1.9 6.8-1.3 12 1.9 18.9l-27-7.7zM108.8 330.4c-3.8-2-4.9-2.8-6-4.3-2.2-2.8-1.9-7.7.5-12.9 3.4-7.2 8.7-10.2 13.9-7.8 3.3 1.6 3.7 3.4 1.9 10.4l-3.2 13c-2.9 11.9-.1 19.7 8.6 23.8 9.4 4.4 19.2.3 24.1-10.1 3.4-7.2 3.7-14.2.8-22.2 5.5 1.5 8.7.3 11-4.6 1-2.1 1.8-4.3 2.3-7l-7.9-3.7c-.1 1.4-.3 2-.7 2.9-1.1 2.3-2.2 2.5-6.5.5l-25.2-11.8c-11.1-5.2-20.9-.6-27.2 12.7-3.5 7.5-4.3 15-2.1 20.3 1.7 4.1 4.9 7.1 11.1 10.5l4.6-9.7zm26.4-16.8c7.7 3.6 10.6 13.7 6.6 22.3-2.8 6-8 8.4-12.9 6.1-4.2-2-5.5-5.9-4-12.8l2.5-11.6c.6-3 .9-5 1-7.3l6.8 3.3zM133.2 244.4l-5.7 9-15.8-10-6 9.5 15.8 10-4.3 6.7 7.6 4.8 4.3-6.7 31.3 19.9c8.3 5.2 14.3 4.3 18.8-2.9 1.4-2.3 2.2-4 3.9-8.7l-7.8-4.9c-.6 3.2-1.1 4.8-2 6.1-1.5 2.4-4 2.7-6.9.8l-31.3-19.9 5.7-9-7.6-4.7zM146.5 225.1l46.2 36.9 7-8.8-24.3-19.4c-8.2-6.6-10.2-17.1-4.5-24.2 1-1.2 1.9-2.1 3.7-3.6l-7.9-6.3c-2 .9-3.7 2.2-5 4-2.2 2.8-3.5 7.3-2.9 11.1.2 2.2.6 3.8 1.8 7.7l-7.3-5.8-6.8 8.4zM199.5 163.2c-12.3 11.6-12 28.7.7 42.1 12.8 13.6 29.8 14.8 42.1 3.2 12.3-11.6 12.1-28.8-.3-42-13.2-13.8-29.9-15.2-42.5-3.3zm6.5 6.8c8-7.6 17.9-6.1 27.6 4.3 9.2 9.8 10.1 20 2.3 27.3-7.9 7.5-17.9 6-27.4-4.1-9.5-10-10.4-20.1-2.5-27.5zM260.5 114.1c-14.1 9.4-16.7 26.2-6.5 41.6 10.3 15.5 26.9 19.6 41 10.3 14.1-9.4 16.8-26.3 6.8-41.4-10.6-15.9-26.9-20.1-41.3-10.5zm5.3 7.8c9.2-6.1 18.6-3 26.5 8.9 7.5 11.2 6.6 21.4-2.3 27.3-9.1 6-18.7 2.9-26.4-8.7-7.6-11.4-6.8-21.5 2.2-27.5zM308.2 85.5l21.6 55.1 10.5-4.1-13.4-34.1c-3.1-8-.6-14.9 6.5-17.7 5.9-2.3 10.5-.2 12.9 6.1l14.7 37.5 10.5-4.1-13.2-33.5c-3.3-8.4-.9-15.4 6.3-18.3 6.2-2.4 10.5-.2 13.3 7l14.4 36.6 10.5-4.1-14.7-37.4c-2.5-6.4-5.1-10-8.8-12.1-4.2-2.6-10-2.7-15.8-.4-7.8 3-11.3 7.5-13 15.8-5-5.4-10.6-6.5-17.9-3.6-6.8 2.7-9.9 6.4-11.6 14.3l-2.7-7-10.1 4zM552.2 41.3c-3.2-16.6-15.4-26.7-32.8-27-22.4-.5-38.6 16.7-39.1 41.6-.2 11.1 2.7 21.1 8.4 29.2 6.7 9.4 16.3 14.3 28.4 14.5 12.2.2 21.8-4.2 28.7-13.4 4.3-5.7 6.2-10.8 7.4-18.8l-11.8-.2c-2.1 14.2-11.1 22.6-23.8 22.3-15.3-.3-25.3-13.9-24.9-33.6.4-19.2 10.9-31.8 26.6-31.4 11.3.2 19.3 6.9 21.6 17.7l11.3-.9zM599.7 23.9l-11-2.5-18 79.7 11 2.5 7.7-34.1c2.2-9.7 9-14.2 18.5-12 3.8.9 6.7 2.8 8.1 5.3 1.4 2.3 1.4 5 .3 9.9l-8.3 36.8 11 2.5 8.7-38.6c1.5-6.6 1.3-10.9-.7-14.8-2.5-5.1-7.7-8.8-14.7-10.4-6.9-1.6-12-.7-18.7 2.9l6.1-27.2zM660.8 84.3c1.9-3.9 2.6-5 4-6.1 2.7-2.3 7.6-2.3 12.9 0 7.3 3.1 10.6 8.3 8.4 13.6-1.4 3.4-3.2 3.8-10.3 2.3l-13.1-2.7c-12-2.4-19.7.8-23.4 9.6-4 9.6.4 19.2 11.1 23.6 7.3 3.1 14.4 3.1 22.2-.1-1.3 5.6.1 8.7 5 10.8 2.1.9 4.4 1.6 7.1 2.1l3.4-8c-1.4-.1-2-.2-2.9-.6-2.4-1-2.6-2.1-.8-6.4l10.8-25.6c4.7-11.3-.2-21-13.8-26.6-7.7-3.2-15.2-3.7-20.3-1.2-4 1.9-6.8 5.2-10 11.5l9.7 3.8zm17.9 25.8c-3.3 7.8-13.2 11.2-22 7.5-6.1-2.6-8.7-7.7-6.7-12.6 1.8-4.3 5.7-5.7 12.7-4.5l11.7 2c3 .5 5 .7 7.3.7l-3 6.9zM751.6 107.7l-9.2-5.5 9.6-16.1-9.7-5.8-9.6 16.1-6.8-4.1-4.6 7.7 6.8 4.1-19 31.9c-5 8.4-3.9 14.4 3.4 18.7 2.3 1.4 4 2.1 8.8 3.7l4.7-7.9c-3.3-.5-4.8-1-6.2-1.8-2.4-1.4-2.8-3.9-1-6.9l19-31.9 9.2 5.5 4.6-7.7zM768.4 118.6l-35.6 47.3 9 6.8 18.7-24.9c6.3-8.4 16.8-10.7 24-5.2 1.3 1 2.2 1.8 3.7 3.6l6.1-8.1c-1-2-2.3-3.6-4.1-4.9-2.8-2.1-7.4-3.3-11.2-2.6-2.2.2-3.7.7-7.7 2l5.6-7.4-8.5-6.6zM833.7 171.7c-11.9-12-28.9-11.4-42.1 1.6-13.3 13.1-14.1 30.1-2.3 42.2 11.9 12 29 11.5 41.9-1.3 13.7-13.4 14.7-30.2 2.5-42.5zm-6.7 6.6c7.7 7.8 6.5 17.7-3.7 27.7-9.6 9.5-19.7 10.5-27.2 2.9-7.7-7.8-6.4-17.8 3.5-27.5 9.8-9.6 19.8-10.8 27.4-3.1zM884.7 232.2c-9.7-13.8-26.7-16-41.8-5.4-15.2 10.7-18.9 27.4-9.2 41.2 9.7 13.8 26.7 16.1 41.6 5.7 15.5-11 19.3-27.4 9.4-41.5zm-7.8 5.4c6.3 9 3.4 18.5-8.2 26.7-11 7.7-21.2 7.1-27.3-1.6-6.3-8.9-3.3-18.6 8-26.6 11.2-7.9 21.4-7.3 27.5 1.5zM914 278.3l-54.2 23.8 4.5 10.3 33.5-14.7c7.9-3.4 14.9-1.2 17.9 5.8 2.6 5.8.6 10.5-5.6 13.2l-36.9 16.2 4.5 10.3 33-14.5c8.3-3.6 15.4-1.5 18.5 5.5 2.7 6.1.6 10.5-6.5 13.6l-36 15.8 4.5 10.3 36.8-16.1c6.3-2.8 9.8-5.5 11.7-9.3 2.4-4.3 2.3-10.1-.2-15.8-3.3-7.6-7.9-11-16.3-12.4 5.2-5.2 6.1-10.8 2.9-18-3-6.7-6.8-9.6-14.7-11.1l6.8-3-4.2-9.9z"/><path d="M444.1 626.2l115.5-121" fill="none" stroke="#fff" stroke-width="20.417" stroke-linecap="square" stroke-linejoin="round"/><path d="M494.7 495.2l73.3 1.2s1 47.1 1.6 77.3" fill="none" stroke="#fff" stroke-width="20.417" stroke-linecap="square"/></svg>